<svg width="36" height="36" viewBox="0 0 36 36" fill="none" xmlns="http://www.w3.org/2000/svg">
<rect width="36" height="36" rx="5" fill="#EFFAF3"/>
<path fill-rule="evenodd" clip-rule="evenodd" d="M19.3951 7.32445C18.5164 6.89185 17.4836 6.89185 16.6049 7.32445L7.85289 11.6335C6.71571 12.1934 6.7157 13.8066 7.85289 14.3665L16.6049 18.6755C17.4836 19.1082 18.5164 19.1082 19.3951 18.6756L28.1471 14.3665C29.2843 13.8067 29.2843 12.1934 28.1471 11.6335L19.3951 7.32445ZM7.9031 16.6087C8.04236 16.5401 8.20556 16.5401 8.34481 16.6087L16.6049 20.6755C17.4836 21.1081 18.5164 21.1081 19.3951 20.6755L27.6552 16.6087C27.7944 16.5401 27.9576 16.5401 28.0969 16.6087L28.1471 16.6334C29.2843 17.1933 29.2843 18.8066 28.1471 19.3665L19.3951 23.6755C18.5164 24.1081 17.4836 24.1081 16.6049 23.6755L7.85289 19.3665C6.7157 18.8066 6.71571 17.1933 7.85289 16.6334L7.9031 16.6087ZM8.34481 21.6088C8.20556 21.5402 8.04236 21.5402 7.9031 21.6088L7.85289 21.6335C6.71571 22.1934 6.7157 23.8067 7.85289 24.3666L16.6049 28.6756C17.4836 29.1082 18.5164 29.1082 19.3951 28.6756L28.1471 24.3666C29.2843 23.8067 29.2843 22.1934 28.1471 21.6335L28.0969 21.6088C27.9576 21.5402 27.7944 21.5402 27.6552 21.6088L19.3951 25.6756C18.5164 26.1082 17.4836 26.1082 16.6049 25.6756L8.34481 21.6088Z" fill="#4EAEA0"/>
</svg>
