<svg width="35" height="35" viewBox="0 0 35 35" fill="none" xmlns="http://www.w3.org/2000/svg">
<circle cx="17.5" cy="17.5" r="17.5" fill="#F6F6F6"/>
<g clip-path="url(#clip0_1647_767)">
<path d="M25.2967 9.5339H20.536C20.4987 9.11017 20.3682 8.39559 19.9215 7.93695C19.6387 7.64712 19.2801 7.5 18.8557 7.5H15.4662C15.0418 7.5 14.6831 7.64712 14.4004 7.93695C13.9537 8.39559 13.8231 9.11017 13.7859 9.5339H9.70349C9.51637 9.5339 9.3645 9.68542 9.3645 9.87288C9.3645 10.0603 9.51637 10.2119 9.70349 10.2119H10.3953L11.0445 25.8122C11.057 26.3959 11.4204 27.5 12.7082 27.5H22.292C23.5798 27.5 23.9431 26.3959 23.9554 25.8193L24.6048 10.2119H25.2967C25.4838 10.2119 25.6357 10.0603 25.6357 9.87288C25.6357 9.68542 25.4838 9.5339 25.2967 9.5339ZM14.8872 8.40881C15.0391 8.25356 15.2286 8.17797 15.4662 8.17797H18.8557C19.0933 8.17797 19.2828 8.25356 19.4347 8.40881C19.7076 8.6878 19.817 9.17864 19.855 9.5339H14.4672C14.5052 9.17864 14.6147 8.6878 14.8872 8.40881ZM23.2777 25.798C23.2757 25.9027 23.2289 26.822 22.292 26.822H12.7082C11.7815 26.822 11.7259 25.901 11.7221 25.7908L11.0737 10.2119H23.9262L23.2777 25.798Z" fill="#1A1A1A"/>
<path d="M14.1632 15.3718C14.1132 15.4219 14.0874 15.4914 14.0926 15.5621C14.1954 16.4258 14.5983 17.2257 15.2308 17.822C15.2893 17.8806 15.3502 17.9343 15.4111 17.9904C14.7257 17.9848 14.0516 18.1662 13.4613 18.5151C13.3939 18.5604 13.3535 18.6364 13.3535 18.7176C13.3535 18.7989 13.3939 18.8749 13.4613 18.9202C14.0949 19.2919 14.821 19.4756 15.5549 19.4498H15.8352C15.649 19.741 15.5516 20.0802 15.5549 20.426C15.5549 20.5607 15.664 20.67 15.7986 20.67H15.8571C16.3576 20.6589 16.8333 20.4501 17.1806 20.0892C17.2123 20.0575 17.2415 20.0233 17.2708 19.9891V21.4022C17.2708 21.5369 17.3799 21.6462 17.5145 21.6462C17.6491 21.6462 17.7582 21.5369 17.7582 21.4022V19.9867C17.7875 20.0208 17.8191 20.055 17.8508 20.0867C18.1941 20.4465 18.6653 20.6561 19.1621 20.67H19.2108C19.3454 20.67 19.4545 20.5607 19.4545 20.426C19.4586 20.0801 19.3611 19.7407 19.1743 19.4498H19.4545C20.1852 19.4737 20.9076 19.2901 21.5384 18.9202C21.6058 18.8749 21.6462 18.7989 21.6462 18.7176C21.6462 18.6364 21.6058 18.5604 21.5384 18.5151C20.9481 18.1662 20.2741 17.9848 19.5886 17.9904C19.6495 17.9343 19.7105 17.8806 19.769 17.822C20.405 17.2272 20.8114 16.4271 20.9169 15.5621C20.9221 15.4914 20.8963 15.4219 20.8462 15.3718C20.7961 15.3216 20.7268 15.2958 20.6561 15.301C19.8237 15.3966 19.0493 15.7757 18.4626 16.3748C18.4626 16.3016 18.4626 16.2284 18.4626 16.1552C18.4626 15.0862 18.1774 14.0978 17.6827 13.4438C17.634 13.3865 17.5627 13.3535 17.4877 13.3535C17.4126 13.3535 17.3413 13.3865 17.2927 13.4438C16.8052 14.0978 16.5128 15.0862 16.5128 16.1552V16.3748C15.9261 15.7757 15.1517 15.3966 14.3192 15.301C14.2604 15.3049 14.205 15.3301 14.1632 15.3718ZM14.1389 18.7176C14.5921 18.5505 15.072 18.4678 15.5549 18.4736C15.7456 18.4731 15.9362 18.4853 16.1252 18.5102C16.3201 18.6237 16.5249 18.7193 16.737 18.7957C16.6216 18.831 16.5044 18.8604 16.386 18.8836H16.3714C15.6256 19.0258 14.8555 18.9686 14.1389 18.7176ZM16.8199 19.7451C16.6119 19.956 16.3466 20.1011 16.057 20.1624C16.1201 19.8722 16.2677 19.6073 16.4811 19.401C16.4977 19.3827 16.5157 19.3655 16.5347 19.3497C16.7613 19.3034 16.9832 19.2365 17.1976 19.1496C17.1215 19.3745 16.9938 19.5785 16.8247 19.7451H16.8199ZM18.1799 19.7451C18.0118 19.5787 17.8842 19.3758 17.807 19.152C18.0217 19.2378 18.2436 19.3048 18.4699 19.3522L18.5259 19.4034C18.7365 19.6107 18.8815 19.8756 18.9427 20.1648C18.6542 20.1016 18.3906 19.9547 18.1847 19.7426L18.1799 19.7451ZM20.8609 18.7201C20.1435 18.9715 19.3727 19.0296 18.6259 18.8885C18.5041 18.8647 18.3837 18.8346 18.2652 18.7982C18.4763 18.7212 18.6802 18.6257 18.8745 18.5126C19.0667 18.4865 19.2605 18.4735 19.4545 18.4736C19.9375 18.4678 20.4174 18.5505 20.8706 18.7176L20.8609 18.7201ZM18.3821 17.207C18.4928 17.0584 18.6142 16.9181 18.7453 16.7872C19.1923 16.322 19.7605 15.9914 20.3856 15.833C20.2274 16.4589 19.8973 17.0278 19.4326 17.4754C19.2085 17.7008 18.9581 17.8982 18.6868 18.0636C18.4683 18.1934 18.2351 18.2967 17.9922 18.3711C18.1747 18.0027 18.3059 17.6111 18.3821 17.207ZM17.5047 14.0344C17.8384 14.6889 18.0058 15.4156 17.9922 16.1503C18.0058 16.885 17.8384 17.6117 17.5047 18.2662C17.1711 17.6117 17.0036 16.885 17.0173 16.1503C17.0044 15.4172 17.1718 14.6923 17.5047 14.0393V14.0344ZM16.2642 16.7872C16.3953 16.9181 16.5167 17.0584 16.6273 17.207C16.7035 17.6111 16.8347 18.0027 17.0173 18.3711C16.7783 18.2964 16.5492 18.1931 16.3348 18.0636C16.0624 17.8989 15.8111 17.7013 15.5866 17.4754C15.122 17.0278 14.7918 16.4589 14.6336 15.833C15.2552 15.9931 15.8198 16.3235 16.2642 16.7872Z" fill="#4CAF50"/>
</g>
<defs>
<clipPath id="clip0_1647_767">
<rect width="20" height="20" fill="white" transform="translate(7.5 7.5)"/>
</clipPath>
</defs>
</svg>
