<svg width="35" height="35" viewBox="0 0 35 35" fill="none" xmlns="http://www.w3.org/2000/svg">
<circle cx="17.5" cy="17.5" r="17.5" fill="#F6F6F6"/>
<g clip-path="url(#clip0_1647_696)">
<path d="M14.4299 16.5965C14.3615 16.665 14.3262 16.7599 14.3333 16.8565C14.474 18.0361 15.025 19.1287 15.8899 19.9432C15.9699 20.0232 16.0533 20.0965 16.1366 20.1732C15.1991 20.1655 14.2773 20.4133 13.4699 20.8898C13.3778 20.9517 13.3225 21.0555 13.3225 21.1665C13.3225 21.2775 13.3778 21.3812 13.4699 21.4432C14.3365 21.9509 15.3295 22.2017 16.3333 22.1665H16.7166C16.462 22.5642 16.3288 23.0276 16.3333 23.4998C16.3333 23.6839 16.4825 23.8332 16.6666 23.8332H16.7466C17.431 23.818 18.0816 23.5328 18.5566 23.0398C18.5999 22.9965 18.6399 22.9498 18.6799 22.9032V24.8332C18.6799 25.0172 18.8292 25.1665 19.0133 25.1665C19.1974 25.1665 19.3466 25.0172 19.3466 24.8332V22.8998C19.3866 22.9465 19.4299 22.9932 19.4733 23.0365C19.9428 23.5279 20.5872 23.8142 21.2666 23.8332H21.3333C21.5174 23.8332 21.6666 23.6839 21.6666 23.4998C21.6721 23.0274 21.5388 22.5638 21.2833 22.1665H21.6666C22.6658 22.1992 23.6539 21.9484 24.5166 21.4432C24.6087 21.3812 24.664 21.2775 24.664 21.1665C24.664 21.0555 24.6087 20.9517 24.5166 20.8898C23.7092 20.4133 22.7874 20.1655 21.8499 20.1732C21.9333 20.0965 22.0166 20.0232 22.0966 19.9432C22.9664 19.1308 23.5223 18.0379 23.6666 16.8565C23.6737 16.7599 23.6384 16.665 23.5699 16.5965C23.5014 16.528 23.4065 16.4927 23.3099 16.4998C22.1714 16.6305 21.1123 17.1482 20.3099 17.9665C20.3099 17.8665 20.3099 17.7665 20.3099 17.6665C20.3099 16.2065 19.9199 14.8565 19.2433 13.9632C19.1768 13.8849 19.0793 13.8398 18.9766 13.8398C18.8739 13.8398 18.7764 13.8849 18.7099 13.9632C18.0433 14.8565 17.6433 16.2065 17.6433 17.6665V17.9665C16.8409 17.1482 15.7818 16.6305 14.6433 16.4998C14.5628 16.5052 14.487 16.5395 14.4299 16.5965ZM14.3966 21.1665C15.0164 20.9382 15.6728 20.8253 16.3333 20.8332C16.5941 20.8325 16.8547 20.8492 17.1133 20.8832C17.3798 21.0382 17.6598 21.1687 17.9499 21.2732C17.7921 21.3214 17.6319 21.3614 17.4699 21.3932H17.4499C16.4299 21.5874 15.3767 21.5093 14.3966 21.1665ZM18.0633 22.5698C17.7788 22.8579 17.416 23.0561 17.0199 23.1398C17.1063 22.7435 17.3081 22.3816 17.5999 22.0998C17.6227 22.0748 17.6472 22.0514 17.6733 22.0298C17.9832 21.9666 18.2867 21.8751 18.5799 21.7565C18.4758 22.0637 18.3011 22.3423 18.0699 22.5698H18.0633ZM19.9233 22.5698C19.6934 22.3425 19.5189 22.0654 19.4133 21.7598C19.707 21.877 20.0104 21.9684 20.3199 22.0332L20.3966 22.1032C20.6846 22.3863 20.8828 22.748 20.9666 23.1432C20.572 23.0567 20.2115 22.8562 19.9299 22.5665L19.9233 22.5698ZM23.5899 21.1698C22.6088 21.5132 21.5547 21.5925 20.5333 21.3998C20.3668 21.3674 20.2021 21.3262 20.0399 21.2765C20.3287 21.1714 20.6075 21.0409 20.8733 20.8865C21.1362 20.8508 21.4012 20.833 21.6666 20.8332C22.3271 20.8253 22.9834 20.9382 23.6033 21.1665L23.5899 21.1698ZM20.1999 19.1032C20.3512 18.9001 20.5172 18.7085 20.6966 18.5298C21.3079 17.8944 22.0851 17.4428 22.9399 17.2265C22.7236 18.0813 22.2721 18.8585 21.6366 19.4698C21.3301 19.7776 20.9876 20.0473 20.6166 20.2732C20.3178 20.4505 19.9989 20.5915 19.6666 20.6932C19.9163 20.19 20.0957 19.6551 20.1999 19.1032ZM18.9999 14.7698C19.4563 15.6637 19.6852 16.6563 19.6666 17.6598C19.6852 18.6633 19.4563 19.6559 18.9999 20.5498C18.5436 19.6559 18.3146 18.6633 18.3333 17.6598C18.3157 16.6586 18.5447 15.6684 18.9999 14.7765V14.7698ZM17.3033 18.5298C17.4826 18.7085 17.6486 18.9001 17.7999 19.1032C17.9041 19.6551 18.0836 20.19 18.3333 20.6932C18.0064 20.5911 17.6931 20.4501 17.3999 20.2732C17.0273 20.0481 16.6836 19.7784 16.3766 19.4698C15.7411 18.8585 15.2896 18.0813 15.0733 17.2265C15.9233 17.4451 16.6956 17.8965 17.3033 18.5298Z" fill="#4CAF50"/>
<path d="M13.1666 15.833C12.3966 17.5863 12 19.1663 12 20.4996C12 24.3656 15.134 27.4996 19 27.4996C22.8659 27.4996 26 24.3656 26 20.4996C26 15.2563 20.1666 8.47962 19.5 7.72628C19.3702 7.58843 19.1893 7.51027 19 7.51027C18.8106 7.51027 18.6297 7.58843 18.5 7.72628C18.1666 8.09295 17.5766 8.80295 16.8633 9.74962C15.922 7.9326 13.8005 7.06811 11.8573 7.7097C9.91407 8.35129 8.72441 10.309 9.05005 12.3293C9.3757 14.3496 11.1202 15.8344 13.1666 15.833ZM17.1666 10.4696C17.9633 9.38295 18.6666 8.56295 19 8.16628C19.26 8.45962 25.3333 15.4163 25.3333 20.4996C25.3333 23.9974 22.4978 26.833 19 26.833C15.5022 26.833 12.6666 23.9974 12.6666 20.4996C12.6666 19.1663 13.0933 17.5663 13.9333 15.7596C15.0954 15.5437 16.1109 14.8436 16.7259 13.8342C17.341 12.8248 17.4976 11.6014 17.1566 10.4696H17.1666ZM13.1666 8.16628C15.0996 8.16628 16.6666 9.73329 16.6666 11.6663C16.6666 13.5993 15.0996 15.1663 13.1666 15.1663C11.2336 15.1663 9.66662 13.5993 9.66662 11.6663C9.66846 9.73405 11.2344 8.16812 13.1666 8.16628Z" fill="#1A1A1A"/>
<path d="M11.3332 12.8327H11.9998V13.4993C11.9998 13.8675 12.2983 14.166 12.6665 14.166H13.6665C14.0347 14.166 14.3332 13.8675 14.3332 13.4993V12.8327H14.9998C15.368 12.8327 15.6665 12.5342 15.6665 12.166V11.166C15.6665 10.7978 15.368 10.4993 14.9998 10.4993H14.3332V9.83268C14.3332 9.46449 14.0347 9.16602 13.6665 9.16602H12.6665C12.2983 9.16602 11.9998 9.46449 11.9998 9.83268V10.4993H11.3332C10.965 10.4993 10.6665 10.7978 10.6665 11.166V12.166C10.6665 12.5342 10.965 12.8327 11.3332 12.8327ZM11.3332 11.166H12.3332C12.5173 11.166 12.6665 11.0168 12.6665 10.8327V9.83268H13.6665V10.8327C13.6665 11.0168 13.8157 11.166 13.9998 11.166H14.9998V12.166H13.9998C13.8157 12.166 13.6665 12.3153 13.6665 12.4993V13.4993H12.6665V12.4993C12.6665 12.3153 12.5173 12.166 12.3332 12.166H11.3332V11.166Z" fill="#4CAF50"/>
</g>
<defs>
<clipPath id="clip0_1647_696">
<rect width="20" height="20" fill="white" transform="translate(7.5 7.5)"/>
</clipPath>
</defs>
</svg>
