<svg width="35" height="35" viewBox="0 0 35 35" fill="none" xmlns="http://www.w3.org/2000/svg">
<circle cx="17.5" cy="17.5" r="17.5" fill="#F6F6F6"/>
<g clip-path="url(#clip0_1647_603)">
<g filter="url(#filter0_d_1647_603)">
<path d="M9.40536 26C9.08809 25.9024 8.98084 25.682 9.00274 25.3649C9.06485 24.4712 9.09345 23.5749 9.18238 22.6839C9.25075 21.9983 9.63461 21.4603 10.1512 21.0141C10.7799 20.4713 11.519 20.1254 12.2984 19.8668C12.9092 19.6641 13.5335 19.5018 14.1538 19.3284C14.2619 19.2982 14.2932 19.2548 14.3052 19.1399C14.3379 18.8263 14.2436 18.6046 13.9951 18.3842C13.4205 17.875 13.0218 17.2399 12.8145 16.4935C12.7984 16.4358 12.7193 16.38 12.6563 16.3525C12.133 16.1249 11.7702 15.7608 11.6665 15.1896C11.6236 14.9528 11.5901 14.7457 11.8399 14.2064C11.6334 14.0866 11.4091 13.9899 11.2268 13.8418C11.0454 13.6946 10.8738 13.5149 10.7553 13.3154C10.5382 12.9504 10.7254 12.6195 11.1535 12.5907C11.5311 12.5654 11.9109 12.5658 12.2894 12.5681C12.4186 12.5689 12.4718 12.5304 12.5066 12.4053C12.705 11.6873 12.9128 10.9719 13.1179 10.2556C13.214 9.92034 13.3708 9.6192 13.6287 9.3766C13.8901 9.13179 14.1958 9.00007 14.5622 9.00184C15.716 9.00583 16.8703 9.01027 18.0241 9.00007C18.5536 8.99563 18.9518 9.21783 19.231 9.64226C19.3624 9.84228 19.4625 10.0716 19.5327 10.3009C19.7458 10.9972 19.942 11.6992 20.1342 12.4017C20.1708 12.5348 20.2271 12.5707 20.3612 12.5689C20.7285 12.5649 21.0972 12.5649 21.464 12.5889C21.9306 12.6195 22.1013 12.9517 21.8729 13.3562C21.6977 13.6662 21.4243 13.8728 21.1159 14.0374C21.0131 14.0924 20.9063 14.1385 20.8085 14.1855C20.8661 14.3709 20.9475 14.5492 20.9738 14.735C21.0739 15.434 20.7102 16.0425 20.0224 16.3303C19.8888 16.3862 19.8307 16.4598 19.791 16.5933C19.5582 17.3739 19.0988 18.0103 18.4866 18.5403C18.3753 18.637 18.3203 18.7301 18.3333 18.876C18.3449 19.0073 18.336 19.1403 18.336 19.28C19.8468 19.6805 21.3657 20.046 22.6165 21.113C22.6165 21.0061 22.6147 20.9268 22.6165 20.8474C22.6228 20.591 22.764 20.4314 23.0223 20.4114C23.1983 20.3977 23.3766 20.4087 23.5652 20.4087V18.5722C23.3704 18.5722 23.1769 18.5842 22.9861 18.5691C22.7939 18.554 22.5897 18.5465 22.4159 18.4751C21.9337 18.2773 21.6691 17.8959 21.6589 17.3805C21.6419 16.501 21.6526 15.6211 21.6544 14.7417C21.6544 14.5589 21.75 14.4521 21.9015 14.4472C22.0624 14.4419 22.1625 14.5465 22.1629 14.7421C22.1656 15.5941 22.162 16.446 22.1656 17.298C22.1674 17.7233 22.4235 18.0378 22.7979 18.0626C23.0473 18.079 23.2984 18.0657 23.5768 18.0657C23.5768 17.9948 23.5768 17.9313 23.5768 17.8675C23.5768 16.8607 23.5768 15.8535 23.5768 14.8468C23.5768 14.786 23.5755 14.7244 23.5835 14.6645C23.6018 14.5319 23.6814 14.456 23.8163 14.4481C23.9526 14.4401 24.0389 14.5128 24.0733 14.6383C24.0889 14.6955 24.0853 14.759 24.0853 14.8193C24.0858 15.8371 24.0853 16.8554 24.0858 17.8732C24.0858 17.9327 24.0858 17.9917 24.0858 18.0608C24.3691 18.0608 24.6377 18.0843 24.9004 18.0551C25.2552 18.0156 25.4943 17.7025 25.4952 17.3242C25.497 16.4833 25.4957 15.6424 25.4961 14.8015C25.4961 14.7519 25.4894 14.7 25.5006 14.6525C25.5327 14.5177 25.619 14.4396 25.7633 14.4489C25.8978 14.4574 25.9818 14.5341 25.9939 14.6667C26.0046 14.7873 25.9979 14.9098 25.9979 15.0317C25.9979 15.7897 25.9997 16.5476 25.9979 17.3056C25.9957 18.056 25.4903 18.5602 24.7315 18.5718C24.526 18.5749 24.3204 18.5722 24.101 18.5722V20.4034C24.2493 20.4034 24.3977 20.4008 24.5461 20.4039C24.8884 20.4114 25.0497 20.5689 25.0501 20.9059C25.0519 22.4382 25.0492 23.971 25.0528 25.5033C25.0533 25.7335 24.9478 25.8865 24.7597 25.9991H9.40536V26ZM12.0763 25.4917H20.5578C20.5636 25.4656 20.5703 25.4501 20.5703 25.4345C20.5712 24.732 20.573 24.0295 20.5703 23.3266C20.5699 23.1465 20.5064 23.0995 20.3017 23.0999C19.2203 23.1035 18.1389 23.107 17.0575 23.1079C16.9753 23.1079 16.8886 23.1013 16.8117 23.0755C16.6794 23.0307 16.6138 22.9279 16.6477 22.7899C16.6875 22.628 16.8157 22.5859 16.969 22.5868C17.5879 22.5895 18.2064 22.5908 18.8253 22.5917C18.8727 22.5917 18.92 22.5859 18.9643 22.5832V19.9697C18.7283 19.9089 18.5044 19.8513 18.2819 19.7936C17.9485 20.7232 17.3149 21.2754 16.3179 21.2745C15.3214 21.2736 14.6887 20.7214 14.3575 19.7958C14.1752 19.8415 13.9942 19.8943 13.8101 19.9298C13.6801 19.955 13.6497 20.0176 13.6506 20.144C13.6573 20.9019 13.6537 21.6599 13.6537 22.4178C13.6537 22.4706 13.6537 22.5238 13.6537 22.5872C14.2798 22.5872 14.8813 22.5872 15.4827 22.5872C15.7459 22.5872 15.8773 22.6702 15.8822 22.8383C15.8871 23.0121 15.7535 23.0977 15.4774 23.0977C14.4406 23.0977 13.4039 23.0977 12.3667 23.0977C12.104 23.0977 12.0754 23.1261 12.0754 23.3807C12.0754 23.8175 12.0754 24.2548 12.0754 24.6917C12.0754 24.956 12.0754 25.2203 12.0754 25.4917H12.0763ZM13.2493 14.6166C13.2493 15.0304 13.2453 15.4774 13.2515 15.924C13.2533 16.0606 13.2663 16.2026 13.3047 16.333C13.6604 17.5357 14.4429 18.3575 15.6029 18.8317C16.1374 19.0499 16.6665 19.0033 17.1902 18.7767C18.8213 18.0706 19.6971 16.3964 19.3821 14.6162C18.3641 14.6765 17.3497 14.7838 16.3349 14.7842C15.3134 14.7842 14.2923 14.6782 13.2493 14.617V14.6166ZM19.3682 11.56C18.5849 11.56 17.8163 11.56 17.0477 11.56C16.8475 11.56 16.7375 11.4739 16.7331 11.3196C16.7286 11.1582 16.8439 11.0628 17.049 11.0624C17.7068 11.0615 18.3641 11.0624 19.0219 11.0624C19.0822 11.0624 19.1421 11.0624 19.252 11.0624C19.1193 10.6934 19.0233 10.3408 18.8673 10.0161C18.6961 9.65955 18.386 9.4928 17.9718 9.49679C16.8796 9.50743 15.7871 9.51054 14.6949 9.4959C14.2199 9.48969 13.9008 9.69947 13.7216 10.1093C13.5903 10.4095 13.5098 10.7315 13.4008 11.0624C14.1636 11.0624 14.8933 11.0624 15.6231 11.0624C15.7013 11.0624 15.7803 11.0548 15.8568 11.0663C15.9971 11.0876 16.0771 11.1781 16.0735 11.3174C16.0704 11.4549 15.9926 11.544 15.8474 11.5582C15.7978 11.5631 15.7473 11.5609 15.6968 11.5609C14.9389 11.5609 14.181 11.5591 13.4227 11.5644C13.365 11.5644 13.269 11.6003 13.256 11.6407C13.1586 11.9392 13.0777 12.2425 12.9883 12.557H19.6529C19.5559 12.2168 19.4625 11.8908 19.3682 11.5609V11.56ZM11.233 13.0892C11.2192 13.1065 11.2058 13.1242 11.1919 13.1415C11.3452 13.2692 11.4802 13.4378 11.6562 13.5167C12.0334 13.6866 12.4226 13.8453 12.823 13.9456C13.6787 14.1593 14.5577 14.2188 15.4376 14.26C16.8622 14.327 18.2774 14.2538 19.6784 13.9824C20.1927 13.8826 20.699 13.7447 21.1302 13.4284C21.246 13.3437 21.3385 13.228 21.4417 13.1264L21.4126 13.0892H11.233ZM11.5651 25.4913C11.5651 25.4243 11.5651 25.3645 11.5651 25.3046C11.5651 24.6522 11.5673 23.9994 11.5642 23.347C11.5628 23.0809 11.6401 22.8516 11.877 22.7092C11.9753 22.6502 11.9927 22.5815 11.9918 22.4808C11.9882 21.8892 11.99 21.2971 11.99 20.7055C11.99 20.6522 11.99 20.5986 11.99 20.5405C11.4136 20.6886 10.51 21.2802 10.1288 21.7526C9.87993 22.0608 9.70655 22.4072 9.67393 22.8028C9.61807 23.4805 9.58187 24.1595 9.53898 24.838C9.52557 25.0518 9.51663 25.2656 9.50501 25.4913H11.5655H11.5651ZM22.5959 25.5028C22.6062 25.47 22.6125 25.4598 22.6125 25.4496C22.6138 24.289 22.6147 23.1283 22.6129 21.9677C22.6129 21.922 22.5955 21.8679 22.5673 21.8315C22.0745 21.1889 21.384 20.8345 20.6431 20.5165C20.6431 21.215 20.6418 21.8892 20.6463 22.5628C20.6463 22.6005 20.6834 22.6524 20.7178 22.6733C20.972 22.825 21.0793 23.0476 21.0775 23.3372C21.0735 23.9949 21.0762 24.6526 21.0762 25.3104C21.0762 25.3693 21.0762 25.4283 21.0762 25.4966C21.1253 25.4993 21.1575 25.5024 21.1897 25.5024C21.6566 25.5024 22.1236 25.5024 22.5955 25.5024L22.5959 25.5028ZM14.8339 19.0237C14.7432 19.6898 15.0336 20.2792 15.5882 20.5893C16.1128 20.8829 16.7791 20.8305 17.251 20.458C17.6849 20.1156 17.9351 19.4765 17.8015 19.0299C16.8202 19.6211 15.834 19.6277 14.8343 19.0237H14.8339ZM23.1241 22.7043H24.5242V20.9276H23.1241V22.7043ZM13.1425 22.5797V20.1169C12.9655 20.1741 12.8051 20.2353 12.6393 20.277C12.5298 20.3045 12.5039 20.36 12.5044 20.4642C12.5084 21.1223 12.5062 21.7801 12.5071 22.4382C12.5071 22.4852 12.5147 22.5322 12.5191 22.5801H13.1429L13.1425 22.5797ZM19.501 22.577H20.1422C20.1422 21.8453 20.1431 21.1268 20.1391 20.4087C20.1391 20.3724 20.0998 20.3156 20.0658 20.3032C19.8844 20.2371 19.6994 20.1821 19.501 20.1187V22.577ZM24.526 24.5165H23.1299V25.4926H24.526V24.5165ZM23.1259 23.9994H24.5215V23.2219H23.1259V23.9994ZM12.7332 15.8154V14.4583C12.6639 14.4414 12.5951 14.4356 12.537 14.4081C12.381 14.3341 12.3086 14.4055 12.2452 14.5403C12.0191 15.0211 12.2211 15.5772 12.7332 15.8154ZM19.9152 14.4578V15.8039C20.3598 15.6313 20.5958 15.1031 20.4394 14.6485C20.3424 14.3656 20.3156 14.3518 20.0238 14.4299C19.9916 14.4387 19.9594 14.4467 19.9152 14.4578Z" fill="#1A1A1A"/>
<path d="M13.6032 24.5996C13.4437 24.5996 13.2836 24.6082 13.1247 24.5978C12.9078 24.5837 12.7868 24.4592 12.778 24.2698C12.7692 24.0766 12.8956 23.9356 13.1011 23.9215C13.4349 23.8989 13.7742 23.8982 14.1081 23.9215C14.3129 23.9356 14.4393 24.0766 14.4298 24.271C14.4203 24.461 14.2994 24.5837 14.0824 24.5978C13.9236 24.6082 13.7634 24.5996 13.6039 24.5996H13.6032Z" fill="#4CAF50"/>
<path d="M19.0334 24.5996C18.8739 24.5996 18.7137 24.6082 18.5549 24.5978C18.338 24.5837 18.217 24.4592 18.2082 24.2698C18.1994 24.0766 18.3258 23.9356 18.5312 23.9215C18.8651 23.8989 19.2044 23.8982 19.5383 23.9215C19.743 23.9356 19.8694 24.0766 19.86 24.271C19.8505 24.461 19.7295 24.5837 19.5126 24.5978C19.3538 24.6082 19.1936 24.5996 19.0341 24.5996H19.0334Z" fill="#4CAF50"/>
<path d="M16.3256 17.8882C16.049 17.8785 15.8019 17.7937 15.5986 17.6017C15.4748 17.4846 15.4618 17.3462 15.5597 17.2349C15.6589 17.1223 15.7925 17.1183 15.931 17.2238C16.2059 17.4341 16.4329 17.4363 16.7028 17.2314C16.8511 17.1187 16.9865 17.1209 17.0866 17.2385C17.1809 17.3494 17.1581 17.501 17.0272 17.6186C16.8283 17.7968 16.5906 17.8771 16.3261 17.8882H16.3256Z" fill="#1A1A1A"/>
<path d="M18.0269 15.2329C18.22 15.3251 18.4059 15.3939 18.5685 15.4981C18.699 15.5815 18.7053 15.7398 18.6203 15.8476C18.5341 15.9571 18.3893 15.9802 18.2642 15.8879C18.1033 15.7691 17.9554 15.7642 17.7932 15.8853C17.6681 15.9784 17.5211 15.958 17.4353 15.8524C17.3419 15.7371 17.3499 15.5819 17.4907 15.4914C17.6493 15.3899 17.8312 15.3247 18.0269 15.2324V15.2329Z" fill="#1A1A1A"/>
<path d="M14.7298 15.2797C14.8281 15.329 15.0077 15.399 15.1637 15.5037C15.291 15.5893 15.2946 15.7503 15.2012 15.8536C15.1002 15.965 14.976 15.9796 14.8585 15.8918C14.6918 15.7676 14.5403 15.7658 14.3732 15.8909C14.2561 15.9787 14.1305 15.9658 14.0291 15.8563C13.9326 15.7525 13.9464 15.6088 14.0599 15.5019C14.2212 15.3503 14.4196 15.2899 14.7302 15.2793L14.7298 15.2797Z" fill="#1A1A1A"/>
<path d="M13.4012 11.0596H16.3229H19.2447L19.3848 11.6163H13.261L13.4012 11.0596Z" fill="#4CAF50"/>
</g>
<rect x="23.1238" y="22.6816" width="1.4" height="0.545803" fill="#4CAF50"/>
<rect x="23.1238" y="23.9805" width="1.4" height="0.545803" fill="#4CAF50"/>
</g>
<defs>
<filter id="filter0_d_1647_603" x="5" y="9" width="25" height="25" filterUnits="userSpaceOnUse" color-interpolation-filters="sRGB">
<feFlood flood-opacity="0" result="BackgroundImageFix"/>
<feColorMatrix in="SourceAlpha" type="matrix" values="0 0 0 0 0 0 0 0 0 0 0 0 0 0 0 0 0 0 127 0" result="hardAlpha"/>
<feOffset dy="4"/>
<feGaussianBlur stdDeviation="2"/>
<feComposite in2="hardAlpha" operator="out"/>
<feColorMatrix type="matrix" values="0 0 0 0 0 0 0 0 0 0 0 0 0 0 0 0 0 0 0.25 0"/>
<feBlend mode="normal" in2="BackgroundImageFix" result="effect1_dropShadow_1647_603"/>
<feBlend mode="normal" in="SourceGraphic" in2="effect1_dropShadow_1647_603" result="shape"/>
</filter>
<clipPath id="clip0_1647_603">
<rect width="23" height="23" fill="white" transform="translate(6 6)"/>
</clipPath>
</defs>
</svg>
