<svg width="36" height="36" viewBox="0 0 36 36" fill="none" xmlns="http://www.w3.org/2000/svg">
<rect width="36" height="36" rx="5" fill="#E1FFE2"/>
<path d="M9 26.45V14.15C8.76667 14.1167 8.54167 13.95 8.325 13.65C8.10833 13.35 8 13.025 8 12.675V9.5C8 9.11667 8.15 8.77083 8.45 8.4625C8.75 8.15417 9.1 8 9.5 8H26.5C26.8833 8 27.2292 8.15417 27.5375 8.4625C27.8458 8.77083 28 9.11667 28 9.5V12.675C28 13.025 27.8917 13.35 27.675 13.65C27.4583 13.95 27.2333 14.1167 27 14.15V26.45C27 26.8333 26.8458 27.1875 26.5375 27.5125C26.2292 27.8375 25.8833 28 25.5 28H10.5C10.1 28 9.75 27.8375 9.45 27.5125C9.15 27.1875 9 26.8333 9 26.45ZM26.5 12.675V9.5H9.5V12.675H26.5ZM15 19.425H21V17.925H15V19.425Z" fill="#4CAF50"/>
</svg>
