<svg width="35" height="35" viewBox="0 0 35 35" fill="none" xmlns="http://www.w3.org/2000/svg">
<circle cx="17.5" cy="17.5" r="17.5" fill="#F7F7F7"/>
<g clip-path="url(#clip0_1647_760)">
<path d="M12.5634 10.6446C12.4559 10.6446 12.3653 10.646 12.2747 10.6446C11.824 10.6368 11.4712 10.2706 11.4735 9.81418C11.4758 9.36966 11.8313 9.00298 12.2752 9.00206C13.931 8.99931 15.5874 8.99931 17.2433 9.00206C17.6963 9.00252 18.0513 9.37058 18.0504 9.82562C18.0495 10.2788 17.6926 10.6387 17.2373 10.6446C17.1518 10.6455 17.0662 10.6446 16.9541 10.6446C16.9541 10.7105 16.9541 10.7705 16.9541 10.8305C16.9541 12.1384 16.9564 13.4467 16.9505 14.7546C16.95 14.8856 16.9967 14.9368 17.1083 14.9899C19.0236 15.9037 20.1689 17.413 20.4686 19.5102C20.8969 22.5055 18.815 25.341 15.8272 25.9004C12.7405 26.4782 9.76181 24.4822 9.11848 21.4054C8.56988 18.7818 9.96496 16.0726 12.4257 14.9844C12.5122 14.946 12.5735 14.9149 12.573 14.7945C12.5675 13.4463 12.5694 12.0981 12.5694 10.7504C12.5694 10.7224 12.5662 10.695 12.5634 10.6446ZM13.1166 10.6533C13.1166 10.7284 13.1166 10.7957 13.1166 10.8625C13.1166 12.2501 13.1139 13.6381 13.1198 15.0256C13.1207 15.2211 13.0448 15.3305 12.8691 15.4024C11.2653 16.0593 10.2299 17.2299 9.74442 18.8889C9.64284 19.2364 9.57558 19.5926 9.58016 19.9679C9.65931 19.9679 9.72154 19.9679 9.78377 19.9679C10.7716 19.9679 11.759 19.9652 12.7469 19.9707C12.9455 19.9716 13.1459 19.9927 13.3417 20.0247C14.1964 20.1648 14.9175 20.5631 15.5339 21.1669C16.1072 21.7286 16.7944 22.0756 17.5979 22.1282C18.2289 22.1694 18.8639 22.1553 19.4972 22.1557C19.5457 22.1557 19.6194 22.0848 19.6395 22.0312C19.9305 21.2539 20.0504 20.4477 19.9278 19.6273C19.6281 17.6222 18.5427 16.209 16.6745 15.407C16.4439 15.3081 16.4069 15.2619 16.4069 15.0119C16.4069 13.6244 16.4069 12.2363 16.4069 10.8488C16.4069 10.7833 16.4069 10.7174 16.4069 10.6533H13.1171H13.1166ZM9.5861 20.5219C9.64467 22.6744 11.318 25.059 14.1443 25.4115C16.6059 25.7182 18.626 24.1965 19.3096 22.7096C18.8951 22.7096 18.4842 22.7037 18.0738 22.7106C16.9061 22.7302 15.915 22.3214 15.0827 21.5066C14.4156 20.8538 13.6057 20.5287 12.6769 20.5187C11.6895 20.5077 10.7016 20.5159 9.71422 20.5164C9.67533 20.5164 9.63644 20.52 9.5861 20.5223V20.5219ZM14.7647 10.0975C15.5458 10.0975 16.3273 10.0975 17.1083 10.0975C17.165 10.0975 17.2241 10.1017 17.2785 10.0879C17.4149 10.0536 17.5004 9.96204 17.4986 9.82013C17.4968 9.67867 17.4098 9.5894 17.273 9.55644C17.2296 9.54591 17.1824 9.54866 17.1371 9.54866C15.5517 9.54866 13.9667 9.54866 12.3813 9.54866C12.347 9.54866 12.3127 9.54683 12.2788 9.55141C12.1301 9.57201 12.0208 9.69057 12.0226 9.82608C12.0244 9.96296 12.1333 10.0769 12.2843 10.0953C12.3351 10.1012 12.3868 10.098 12.438 10.098C13.2136 10.098 13.9892 10.098 14.7647 10.098V10.0975Z" fill="black"/>
<path d="M22.4485 16.1283C20.47 16.1301 18.875 14.5407 18.8745 12.5672C18.8741 10.5977 20.4627 9.00281 22.4256 9.00098C24.405 8.99915 25.9991 10.5877 25.9996 12.5621C26 14.5311 24.4109 16.1269 22.448 16.1288L22.4485 16.1283ZM22.4453 9.54804C20.7903 9.54346 19.424 10.9049 19.4222 12.5607C19.4199 14.2092 20.772 15.5707 22.421 15.5812C24.0737 15.5918 25.4455 14.2321 25.4532 12.5768C25.4606 10.9223 24.1007 9.55307 22.4457 9.54804H22.4453Z" fill="black"/>
<path d="M21.5374 18.8763C21.5419 18.6983 21.6336 18.4647 21.8223 18.2754C22.1089 17.9879 22.2503 17.6468 22.2506 17.2466C22.2506 17.1269 22.3217 17.0552 22.4301 17.0567C22.5372 17.0578 22.6051 17.1301 22.6051 17.2515C22.6051 17.648 22.7495 17.9835 23.0293 18.271C23.3885 18.6404 23.4183 19.1848 23.1093 19.539C22.8638 19.8204 22.4706 19.9223 22.1208 19.795C21.7627 19.6645 21.5353 19.3409 21.5371 18.8763H21.5374ZM22.4283 18.0925C22.2958 18.2547 22.1533 18.4242 22.0178 18.5993C21.9762 18.6529 21.9467 18.719 21.9259 18.784C21.8392 19.0525 21.9443 19.3147 22.1818 19.4365C22.4089 19.5527 22.6819 19.4965 22.8441 19.3001C23.004 19.1064 23.0043 18.8198 22.8328 18.5917C22.7021 18.4178 22.559 18.253 22.4283 18.0928V18.0925Z" fill="#4CAF50"/>
<path d="M17.7767 18.6036C17.7754 19.3617 17.1622 19.9683 16.4 19.9669C15.6422 19.9655 15.036 19.3525 15.0374 18.5894C15.0387 17.8308 15.6509 17.2252 16.4141 17.2266C17.1728 17.2279 17.7781 17.84 17.7767 18.6036ZM16.4009 17.7745C15.9575 17.7787 15.5837 18.1563 15.585 18.5986C15.5864 19.0412 15.9621 19.4175 16.4045 19.4189C16.8525 19.4207 17.2364 19.033 17.229 18.5862C17.2217 18.1412 16.8429 17.7704 16.4009 17.7745Z" fill="#4CAF50"/>
<path d="M18.3273 21.6117C17.8665 21.6122 17.5032 21.2487 17.5037 20.7872C17.5041 20.3271 17.8692 19.9659 18.3318 19.9678C18.783 19.9696 19.1449 20.3317 19.1467 20.7831C19.1486 21.245 18.7862 21.6108 18.3273 21.6112V21.6117ZM18.3195 20.5171C18.1776 20.5208 18.0495 20.6545 18.0527 20.7955C18.0564 20.9374 18.1905 21.066 18.3309 21.0624C18.4728 21.0587 18.6013 20.9246 18.5977 20.784C18.594 20.6421 18.46 20.5135 18.3195 20.5171Z" fill="#4CAF50"/>
<path d="M20.7996 11.5246C20.7745 11.5498 20.7615 11.5847 20.7641 11.6202C20.8158 12.0541 21.0181 12.456 21.3356 12.7555C21.365 12.7849 21.3956 12.8119 21.4262 12.8401C21.082 12.8373 20.7436 12.9284 20.4472 13.1037C20.4134 13.1265 20.3931 13.1646 20.3931 13.2054C20.3931 13.2463 20.4134 13.2844 20.4472 13.3072C20.7653 13.4939 21.1299 13.5862 21.4984 13.5732H21.6391C21.5456 13.7195 21.4967 13.8899 21.4984 14.0636C21.4984 14.1313 21.5532 14.1862 21.6208 14.1862H21.6501C21.9014 14.1806 22.1403 14.0758 22.3146 13.8944C22.3305 13.8785 22.3452 13.8613 22.3599 13.8442V14.554C22.3599 14.6217 22.4147 14.6766 22.4823 14.6766C22.5499 14.6766 22.6047 14.6217 22.6047 14.554V13.843C22.6193 13.8601 22.6353 13.8773 22.6512 13.8932C22.8235 14.074 23.0601 14.1792 23.3095 14.1862H23.334C23.4016 14.1862 23.4564 14.1313 23.4564 14.0636C23.4584 13.8899 23.4095 13.7194 23.3157 13.5732H23.4564C23.8232 13.5853 24.186 13.493 24.5027 13.3072C24.5365 13.2844 24.5568 13.2463 24.5568 13.2054C24.5568 13.1646 24.5365 13.1265 24.5027 13.1037C24.2063 12.9284 23.8679 12.8373 23.5237 12.8401C23.5543 12.8119 23.5849 12.7849 23.6143 12.7555C23.9336 12.4567 24.1377 12.0548 24.1906 11.6202C24.1932 11.5847 24.1803 11.5498 24.1552 11.5246C24.13 11.4994 24.0952 11.4865 24.0597 11.4891C23.6417 11.5371 23.2529 11.7276 22.9583 12.0285C22.9583 11.9917 22.9583 11.9549 22.9583 11.9182C22.9583 11.3812 22.8151 10.8847 22.5667 10.5561C22.5423 10.5273 22.5065 10.5107 22.4688 10.5107C22.4311 10.5107 22.3953 10.5273 22.3709 10.5561C22.1262 10.8847 21.9793 11.3812 21.9793 11.9182V12.0285C21.6848 11.7276 21.2959 11.5371 20.8779 11.4891C20.8484 11.491 20.8206 11.5037 20.7996 11.5246ZM20.7874 13.2054C21.0149 13.1215 21.2559 13.0799 21.4984 13.0828C21.5941 13.0826 21.6898 13.0887 21.7847 13.1012C21.8826 13.1583 21.9854 13.2063 22.0919 13.2447C22.034 13.2624 21.9751 13.2771 21.9157 13.2888H21.9083C21.5339 13.3603 21.1472 13.3315 20.7874 13.2054ZM22.1335 13.7216C22.0291 13.8275 21.8959 13.9004 21.7505 13.9312C21.7822 13.7855 21.8563 13.6524 21.9634 13.5487C21.9718 13.5395 21.9808 13.5309 21.9903 13.523C22.1041 13.4997 22.2155 13.4661 22.3232 13.4224C22.285 13.5354 22.2208 13.6379 22.136 13.7216H22.1335ZM22.8164 13.7216C22.732 13.638 22.6679 13.5361 22.6291 13.4237C22.737 13.4667 22.8484 13.5004 22.962 13.5242L22.9901 13.5499C23.0959 13.6541 23.1687 13.7871 23.1994 13.9325C23.0545 13.9007 22.9222 13.8269 22.8188 13.7204L22.8164 13.7216ZM24.1625 13.2067C23.8023 13.333 23.4153 13.3621 23.0403 13.2913C22.9792 13.2793 22.9187 13.2642 22.8592 13.2459C22.9652 13.2072 23.0676 13.1592 23.1651 13.1025C23.2617 13.0893 23.359 13.0828 23.4564 13.0828C23.6989 13.0799 23.9398 13.1215 24.1674 13.2054L24.1625 13.2067ZM22.9179 12.4466C22.9735 12.3719 23.0344 12.3014 23.1003 12.2357C23.3247 12.002 23.61 11.8359 23.9239 11.7563C23.8444 12.0707 23.6787 12.3566 23.4454 12.5814C23.3328 12.6946 23.2071 12.7938 23.0709 12.8769C22.9612 12.9421 22.8441 12.994 22.7221 13.0314C22.8138 12.8463 22.8797 12.6495 22.9179 12.4466ZM22.4774 10.8528C22.6449 11.1816 22.729 11.5466 22.7221 11.9157C22.729 12.2848 22.6449 12.6499 22.4774 12.9786C22.3099 12.6499 22.2258 12.2848 22.2326 11.9157C22.2262 11.5475 22.3102 11.1833 22.4774 10.8552V10.8528ZM21.8545 12.2357C21.9204 12.3014 21.9813 12.3719 22.0368 12.4466C22.0751 12.6495 22.141 12.8463 22.2326 13.0314C22.1126 12.9938 21.9976 12.942 21.89 12.8769C21.7532 12.7941 21.627 12.6949 21.5143 12.5814C21.281 12.3566 21.1152 12.0707 21.0358 11.7563C21.3479 11.8368 21.6314 12.0028 21.8545 12.2357Z" fill="#4CAF50"/>
</g>
<defs>
<clipPath id="clip0_1647_760">
<rect width="17" height="17" fill="white" transform="translate(9 9)"/>
</clipPath>
</defs>
</svg>
