<svg width="36" height="36" viewBox="0 0 36 36" fill="none" xmlns="http://www.w3.org/2000/svg">
<rect width="36" height="36" rx="5" fill="#E7DDFF"/>
<path d="M27 17.025V25.5C27 25.9 26.85 26.25 26.55 26.55C26.25 26.85 25.9 27 25.5 27H10.475C10.075 27 9.72498 26.85 9.42498 26.55C9.12498 26.25 8.97498 25.9 8.97498 25.5V17.025C8.50831 16.625 8.19998 16.1333 8.04998 15.55C7.89998 14.9667 7.91665 14.3833 8.09998 13.8L9.17498 10.425C9.30831 9.975 9.54165 9.625 9.87498 9.375C10.2083 9.125 10.5916 9 11.025 9H24.85C25.3166 9 25.725 9.12917 26.075 9.3875C26.425 9.64583 26.6666 9.99167 26.8 10.425L27.9 13.8C28.0833 14.3833 28.0958 14.9667 27.9375 15.55C27.7791 16.1333 27.4666 16.625 27 17.025ZM20.25 16.25C20.7333 16.25 21.1416 16.0917 21.475 15.775C21.8083 15.4583 21.9416 15.075 21.875 14.625L21.25 10.5H18.75V14.625C18.75 15.0583 18.8916 15.4375 19.175 15.7625C19.4583 16.0875 19.8166 16.25 20.25 16.25ZM15.575 16.25C16.0416 16.25 16.4375 16.0917 16.7625 15.775C17.0875 15.4583 17.25 15.075 17.25 14.625V10.5H14.75L14.125 14.625C14.0583 15.0583 14.175 15.4375 14.475 15.7625C14.775 16.0875 15.1416 16.25 15.575 16.25ZM11.025 16.25C11.425 16.25 11.7708 16.1125 12.0625 15.8375C12.3541 15.5625 12.525 15.225 12.575 14.825L13.225 10.5H10.725L9.57498 14.15C9.40831 14.6667 9.47498 15.1458 9.77498 15.5875C10.075 16.0292 10.4916 16.25 11.025 16.25ZM24.95 16.25C25.4833 16.25 25.9041 16.0333 26.2125 15.6C26.5208 15.1667 26.5916 14.6833 26.425 14.15L25.275 10.5H22.775L23.425 14.825C23.475 15.225 23.6458 15.5625 23.9375 15.8375C24.2291 16.1125 24.5666 16.25 24.95 16.25Z" fill="#531BD8"/>
</svg>
