<svg width="35" height="35" viewBox="0 0 35 35" fill="none" xmlns="http://www.w3.org/2000/svg">
<circle cx="17.5" cy="17.5" r="17.5" fill="#F3FFF4"/>
<path d="M16.9386 15.8762C16.5958 14.3087 16.8725 12.8474 17.494 11.434C17.6859 10.9981 17.921 10.5796 18.1481 10.159C18.2638 9.94458 18.4819 9.94915 18.6052 10.1599C19.1522 11.0941 19.5847 12.0728 19.8021 13.135C19.9834 14.0194 19.9999 14.9034 19.8037 15.7881C19.7995 15.8064 19.8008 15.8255 19.7987 15.8526C20.0325 15.6597 20.2503 15.4644 20.4846 15.2903C21.4344 14.5834 22.5101 14.1948 23.6946 14.0888C23.9496 14.0659 24.0691 14.2417 23.959 14.479C23.3934 15.6984 22.513 16.6339 21.3226 17.2892C21.281 17.3121 21.2387 17.3333 21.198 17.357C21.1908 17.3611 21.1887 17.374 21.1916 17.3682C21.5522 17.4808 21.9216 17.5772 22.2754 17.7127C22.5287 17.81 22.7664 17.9513 23.0023 18.088C23.2358 18.2231 23.2269 18.4296 22.9884 18.5534C22.0716 19.0297 21.115 19.1216 20.1211 18.8269C20.0821 18.8153 20.0431 18.8036 19.9859 18.7862C20.0334 18.9175 20.0783 19.031 20.1151 19.1465C20.1944 19.3963 20.0673 19.5401 19.8046 19.5122C19.2318 19.4519 18.7582 19.208 18.3663 18.7596C18.3095 18.8244 18.2629 18.888 18.2061 18.9408C17.8363 19.2857 17.3923 19.4706 16.8865 19.5164C16.6695 19.5359 16.542 19.3938 16.5979 19.186C16.6323 19.0576 16.6865 18.9337 16.7289 18.8165C16.4378 18.8689 16.1467 18.9379 15.8515 18.9711C15.0935 19.0571 14.3818 18.8963 13.7162 18.5381C13.5099 18.4271 13.5116 18.2247 13.7137 18.0955C14.2644 17.7426 14.8635 17.5107 15.5142 17.4098C15.5282 17.4077 15.5409 17.4002 15.5803 17.3852C15.521 17.3503 15.4795 17.3246 15.4367 17.3013C14.2356 16.6505 13.3498 15.7137 12.785 14.4869C12.6643 14.2247 12.7918 14.0614 13.0846 14.0896C14.3661 14.2139 15.5058 14.671 16.4937 15.4835C16.6386 15.6028 16.7755 15.7316 16.9386 15.8762ZM14.3153 18.3058C14.3962 18.3353 14.4534 18.3581 14.5119 18.3768C15.2452 18.6087 15.9709 18.5584 16.6844 18.3016C16.9411 18.2093 17.1851 18.0838 17.4342 17.9712C17.5643 17.9126 17.6749 17.9355 17.7533 18.0506C17.8287 18.1616 17.8011 18.2675 17.705 18.3577C17.6592 18.4005 17.6058 18.4371 17.5656 18.4845C17.4414 18.632 17.322 18.7829 17.2004 18.9329C17.2122 18.9441 17.2241 18.9553 17.236 18.967C17.2601 18.9611 17.2847 18.9574 17.308 18.9491C17.6778 18.8194 17.9486 18.58 18.1392 18.2447C18.2642 18.0248 18.4747 18.0286 18.6056 18.2447C18.6595 18.3336 18.7124 18.4246 18.7785 18.504C18.9687 18.7313 19.2068 18.8872 19.5373 18.9686C19.4763 18.871 19.4432 18.7991 19.3928 18.7417C19.2797 18.6125 19.1615 18.487 19.0395 18.3656C18.9302 18.2567 18.9026 18.135 18.9755 18.034C19.0501 17.9305 19.1738 17.9101 19.3153 17.9791C19.3627 18.002 19.4081 18.029 19.4547 18.0527C20.0592 18.3585 20.6922 18.5576 21.3814 18.5302C21.7301 18.5165 22.069 18.45 22.4101 18.3066C22.3554 18.2758 22.3211 18.2542 22.2843 18.2368C21.6755 17.9438 21.0319 17.8037 20.3541 17.8374C20.1122 17.8494 19.8724 17.8923 19.6309 17.9155C19.4885 17.9292 19.3992 17.8569 19.3644 17.7239C19.3343 17.6088 19.411 17.4904 19.539 17.4476C19.5839 17.4326 19.6309 17.4243 19.6771 17.4135C21.0997 17.0756 22.2207 16.3085 23.0473 15.1265C23.1553 14.9719 23.246 14.8061 23.3612 14.6187C22.5473 14.7442 21.8208 14.9906 21.1556 15.4016C20.3134 15.9224 19.6864 16.6397 19.1916 17.4771C19.0984 17.635 18.9679 17.6824 18.8391 17.6163C18.7086 17.5494 18.6768 17.4143 18.7632 17.2522C19.3873 16.0849 19.5851 14.8493 19.3856 13.549C19.2327 12.5549 18.8683 11.6344 18.379 10.735C18.3468 10.787 18.3176 10.8231 18.2998 10.8639C18.0799 11.3617 17.8282 11.8488 17.6499 12.3608C17.2042 13.6416 17.119 14.9449 17.5452 16.2499C17.6622 16.6077 17.8376 16.9468 17.9867 17.2942C18.0481 17.4372 18.0108 17.5631 17.885 17.6267C17.7643 17.6878 17.6435 17.65 17.5601 17.524C17.5427 17.4979 17.5287 17.47 17.5135 17.443C16.7767 16.1505 15.6884 15.2741 14.2551 14.814C13.9844 14.7271 13.7023 14.6748 13.4209 14.6054C13.4163 14.6465 13.4137 14.6523 13.4159 14.6565C13.4265 14.6802 13.437 14.7039 13.4498 14.7263C14.0124 15.7125 14.7974 16.4805 15.8349 16.9721C16.2586 17.1729 16.7216 17.2938 17.1682 17.4459C17.3241 17.4991 17.4084 17.6084 17.3775 17.7455C17.347 17.8798 17.2148 17.9558 17.0572 17.923C16.5869 17.8253 16.1137 17.8116 15.6392 17.8781C15.1825 17.9421 14.7474 18.0755 14.3153 18.3058Z" fill="#4CAF50"/>
<path d="M12.7389 21.0324C12.9545 20.9032 13.1591 20.7964 13.3468 20.6655C13.8942 20.2844 14.4682 19.9669 15.1427 19.8592C15.6333 19.7807 16.087 19.9062 16.5213 20.1086C17.0534 20.3567 17.6016 20.5487 18.1858 20.6318C18.4099 20.6638 18.6395 20.6663 18.8611 20.7095C19.0501 20.7461 19.2386 20.8059 19.4131 20.8857C19.5207 20.9348 19.5805 20.9186 19.6622 20.8525C20.2194 20.4057 20.7976 19.9876 21.4636 19.7071C21.645 19.6307 21.8432 19.5754 22.039 19.5513C22.3724 19.5105 22.605 19.7158 22.5762 20.0425C22.5571 20.2582 22.4935 20.4818 22.3965 20.6763C22.1512 21.1696 21.7797 21.5773 21.4056 21.98C20.8235 22.6058 20.1893 23.176 19.4949 23.6801C18.7353 24.2316 18.4883 24.2977 17.5346 24.1768C16.5878 24.0566 15.6426 23.9274 14.6978 23.7911C14.4691 23.7583 14.3077 23.8825 14.1217 23.9561C14.2081 24.2243 14.1201 24.4179 13.8577 24.5371C13.5468 24.6784 13.2362 24.8205 12.9248 24.9601C12.7503 25.0383 12.6431 25.0042 12.5643 24.8346C12.053 23.7337 11.5433 22.6316 11.0353 21.529C10.9595 21.3645 11.0057 21.2514 11.1743 21.1754C11.5238 21.0175 11.875 20.8624 12.2262 20.7079C12.4537 20.6077 12.5465 20.6422 12.6529 20.8624C12.6753 20.9086 12.699 20.9539 12.7389 21.0324ZM13.9141 23.5322C14.0691 23.4632 14.2102 23.395 14.356 23.3385C14.422 23.3132 14.4991 23.2957 14.5686 23.3019C14.7419 23.3169 14.9135 23.3497 15.0859 23.3718C16.0586 23.496 17.0313 23.6211 18.0045 23.7412C18.3023 23.7778 18.5764 23.7109 18.8302 23.5426C19.8359 22.876 20.7163 22.0743 21.4844 21.1559C21.6933 20.9061 21.8564 20.6181 22.0241 20.338C22.0809 20.2432 22.0864 20.1194 22.119 19.9939C22.0491 19.9972 22.0161 19.9922 21.9873 20.0009C21.8919 20.0304 21.7945 20.057 21.7043 20.0986C21.098 20.3754 20.5511 20.7457 20.0198 21.1396C19.8775 21.2452 19.7686 21.3508 19.7334 21.5523C19.6627 21.9529 19.3487 22.1508 18.9747 22.2617C18.5124 22.3985 18.0363 22.4047 17.5609 22.3835C17.1394 22.3648 16.7183 22.3245 16.298 22.2858C16.1345 22.2709 16.0362 22.1499 16.0548 22.0157C16.0747 21.8727 16.2018 21.7954 16.3743 21.815C16.589 21.8391 16.8043 21.8636 17.0203 21.879C17.5474 21.9164 18.0773 21.9554 18.5997 21.8549C18.7954 21.8171 18.9996 21.7431 19.1611 21.6313C19.364 21.4912 19.3212 21.3188 19.0924 21.2332C19.0191 21.2057 18.942 21.1833 18.8645 21.1729C18.64 21.143 18.4137 21.1234 18.1892 21.0939C17.5241 21.0067 16.8975 20.7976 16.2963 20.5109C15.7735 20.2615 15.2435 20.2341 14.7063 20.4597C14.5513 20.5246 14.3915 20.5848 14.2492 20.6713C13.8158 20.9339 13.39 21.2086 12.9537 21.4829C13.2676 22.152 13.587 22.8344 13.9141 23.5322ZM13.6379 24.1219C13.1795 23.1448 12.7257 22.1774 12.2703 21.2057C12.0288 21.3142 11.8 21.4168 11.5611 21.5241C12.0157 22.5048 12.4639 23.4723 12.9168 24.4498C13.1646 24.3372 13.4015 24.2295 13.6379 24.1219Z" fill="#1A1A1A"/>
</svg>
