<svg width="36" height="36" viewBox="0 0 36 36" fill="none" xmlns="http://www.w3.org/2000/svg">
<rect width="36" height="36" rx="5" fill="#FFF4D8"/>
<path d="M28.368 9.16065L7.18082 16.6271C6.84002 16.7471 6.76442 17.0411 7.16882 17.2019L11.724 19.0271L14.424 20.1083L27.6048 10.4291C27.7824 10.2995 27.9864 10.5431 27.858 10.6823L18.4128 20.8979V20.9003L17.8704 21.5039L18.5892 21.8903L24.5676 25.1087C24.9168 25.2959 25.3692 25.1411 25.47 24.7079L28.9572 9.67785C29.052 9.26625 28.7796 9.01545 28.368 9.16065ZM14.4 26.5943C14.4 26.8895 14.5668 26.9723 14.7972 26.7635C15.0984 26.4887 18.2172 23.6903 18.2172 23.6903L14.4 21.7175V26.5943Z" fill="#FFB800"/>
</svg>
