<svg width="35" height="35" viewBox="0 0 35 35" fill="none" xmlns="http://www.w3.org/2000/svg">
<circle cx="17.5" cy="17.5" r="17.5" fill="#F6F6F6"/>
<g clip-path="url(#clip0_1647_759)">
<path d="M27.9998 21.4334C27.911 21.5453 27.8491 21.69 27.7264 21.7608C27.5675 21.8531 27.3631 21.9252 27.1719 21.9376C26.7648 21.9636 26.3538 21.9453 25.9275 21.9453C25.778 22.65 25.3626 23.2113 24.6503 23.6063C24.1095 23.9064 23.5062 24.0325 22.8602 23.9927C21.8087 23.9279 20.5485 23.3305 20.2203 21.9453C19.9458 21.9453 19.6669 21.9467 19.388 21.9453C19.1036 21.9435 18.9332 21.8129 18.9348 21.6014C18.9365 21.3913 19.1074 21.2653 19.3957 21.2639C19.6685 21.2626 19.9408 21.2639 20.2099 21.2639C20.291 21.0374 20.3677 20.8223 20.4499 20.5935H14.5503C14.6248 20.8054 14.701 21.0201 14.787 21.2639C15.0336 21.2639 15.3037 21.2635 15.5744 21.2639C15.8768 21.2648 16.0582 21.3909 16.0609 21.601C16.0637 21.8115 15.8807 21.9449 15.5837 21.9458C15.318 21.9467 15.0522 21.9458 14.7711 21.9458C14.6215 22.6523 14.2046 23.2127 13.4922 23.6077C12.9449 23.9114 12.335 24.0306 11.6813 23.9932C10.3937 23.9196 9.3329 23.0948 9.07373 21.9458C8.87264 21.9458 8.66388 21.9458 8.45511 21.9458C8.23649 21.9458 8.01787 21.9485 7.79924 21.9449C7.3587 21.9385 7.00858 21.6476 7.002 21.2813C6.99762 21.042 7.00091 20.8027 7.00145 20.5633C7.00145 20.3633 7.09296 20.1902 7.27871 20.071C7.39377 19.997 7.4135 19.9194 7.4135 19.8112C7.41076 17.2477 7.42391 14.6842 7.40254 12.1208C7.39706 11.4864 7.98499 10.9959 8.74881 11C11.9065 11.0178 15.0637 11.0073 18.2214 11.0073C19.0455 11.0073 19.5491 11.4257 19.5502 12.1107C19.5507 12.635 19.5513 13.1589 19.5518 13.6831C19.5518 13.6941 19.5567 13.7051 19.565 13.7421C19.6307 13.7421 19.7025 13.7421 19.7743 13.7421C20.4236 13.7421 21.0729 13.7512 21.7222 13.7398C22.5084 13.7256 23.0504 14.0325 23.3966 14.5984C23.8673 15.3684 24.3374 16.1388 24.7829 16.9184C24.8958 17.1157 25.0256 17.1806 25.2744 17.1637C25.8141 17.1267 26.3226 17.2148 26.7615 17.4966C27.2908 17.8364 27.5768 18.2844 27.5878 18.8448C27.5943 19.1809 27.5834 19.517 27.5943 19.8532C27.5965 19.9194 27.6574 19.9879 27.7039 20.0486C27.7982 20.171 27.9006 20.2884 27.9998 20.4081V21.4338V21.4334ZM18.731 19.8957C18.731 19.8235 18.731 19.7678 18.731 19.7125C18.731 17.1897 18.731 14.6669 18.731 12.1441C18.731 11.8093 18.5891 11.6901 18.1891 11.6901C15.0528 11.6901 11.9169 11.6901 8.78059 11.6901C8.36745 11.6901 8.22992 11.8061 8.22992 12.1541C8.22992 14.2157 8.22992 16.2772 8.22992 18.3388V18.5287C8.38717 18.5287 8.51648 18.5255 8.64579 18.5297C8.88195 18.537 9.04688 18.6758 9.05017 18.8644C9.05345 19.0608 8.88579 19.2038 8.63867 19.2106C8.50552 19.2143 8.37183 19.2111 8.24087 19.2111V19.8961C8.74113 19.8961 9.23153 19.902 9.72138 19.8915C9.83097 19.8893 9.96028 19.8482 10.0441 19.7892C11.14 19.0142 12.712 19.0151 13.8035 19.7906C13.8868 19.85 14.0177 19.8915 14.1267 19.892C15.5886 19.8984 17.0511 19.8966 18.5129 19.8966C18.5792 19.8966 18.6455 19.8966 18.7316 19.8966L18.731 19.8957ZM19.5639 14.4271V19.8957C19.9869 19.8957 20.3962 19.8893 20.8049 19.8988C20.9797 19.903 21.1096 19.8632 21.2444 19.7673C22.2027 19.0873 23.6229 19.0005 24.6432 19.6134C25.0229 19.8413 25.3834 19.9249 25.8245 19.8993C26.1347 19.8815 26.447 19.8957 26.7538 19.8957V19.2179C26.1051 19.1869 25.9549 19.1275 25.9549 18.8882C25.9549 18.8092 25.9911 18.7178 26.0459 18.653C26.2026 18.4694 26.4557 18.5488 26.6787 18.5205C26.6689 18.4927 26.6645 18.4707 26.6535 18.4516C26.63 18.4105 26.607 18.3689 26.5774 18.331C26.3188 17.9958 25.9423 17.8437 25.4717 17.8437C23.9276 17.8428 22.3835 17.8437 20.8394 17.8432C20.5425 17.8432 20.3732 17.7199 20.3721 17.4929C20.3682 16.8152 20.3688 16.1375 20.3721 15.4602C20.3732 15.2451 20.537 15.1126 20.7989 15.1113C21.3523 15.1085 21.9057 15.1103 22.4591 15.1103C22.5523 15.1103 22.6454 15.1103 22.7435 15.1103C22.6186 14.7116 22.2876 14.439 21.8701 14.4317C21.1063 14.418 20.3414 14.4276 19.5622 14.4276L19.5639 14.4271ZM13.9722 21.6055C13.9733 20.6734 13.0424 19.8961 11.9235 19.8957C10.8046 19.8947 9.87261 20.6707 9.87206 21.6033C9.87097 22.5349 10.803 23.3127 11.9208 23.3136C13.0386 23.3145 13.9717 22.5381 13.9728 21.6055H13.9722ZM25.1281 21.601C25.1254 20.6679 24.1917 19.8929 23.0739 19.8952C21.9545 19.8979 21.0246 20.6757 21.0274 21.6074C21.0307 22.54 21.9649 23.3159 23.0816 23.3136C24.201 23.3113 25.1308 22.5326 25.1281 21.6014V21.601ZM24.007 17.1564C23.7336 16.701 23.4777 16.2699 23.212 15.8433C23.1912 15.81 23.0986 15.7949 23.0394 15.794C22.6778 15.7895 22.3156 15.7917 21.9534 15.7917C21.7035 15.7917 21.4531 15.7917 21.2055 15.7917V17.1559H24.007V17.1564ZM9.29564 20.588H7.83321V21.2548H9.05839C9.13838 21.0301 9.21455 20.815 9.29564 20.588ZM27.1719 20.5866H25.704C25.7856 20.8154 25.864 21.0347 25.9418 21.2534H27.1719V20.5866Z" fill="black"/>
<path d="M10.8311 15.3968C10.5906 15.0099 10.4311 14.6263 10.3988 14.2112C10.3758 13.9157 10.5681 13.7714 10.9237 13.7992C11.4338 13.8394 11.9045 13.9792 12.362 14.181C12.47 13.5622 12.6963 12.9945 13.0826 12.4739C13.3116 12.1656 13.6519 12.1679 13.8826 12.4789C14.2677 12.9982 14.4897 13.5663 14.5932 14.1399C14.9855 14.0358 15.3729 13.9326 15.7609 13.8312C15.8058 13.8193 15.8551 13.8184 15.9017 13.8111C16.494 13.7211 16.6332 13.9769 16.5422 14.3865C16.5039 14.5592 16.4534 14.7313 16.3877 14.898C16.3225 15.0638 16.2304 15.2223 16.1647 15.3552C16.5367 15.5315 16.9022 15.7027 17.2649 15.8777C17.3236 15.906 17.3745 15.9462 17.4244 15.9845C17.643 16.1544 17.6435 16.3668 17.4156 16.5307C16.9844 16.8413 16.4852 17.0445 15.9318 17.1555C15.8852 17.1646 15.8387 17.1724 15.7926 17.1825C15.7735 17.1866 15.7565 17.1962 15.7313 17.2058C15.7757 17.3428 15.8266 17.4766 15.8611 17.6136C15.9187 17.8419 15.8162 17.9817 15.5455 18.0548C15.0359 18.1927 14.5275 18.1991 14.0206 18.042C13.9894 18.0324 13.9571 18.0264 13.9247 18.0196C13.9193 18.0182 13.9116 18.0223 13.8902 18.0283C13.8902 18.2511 13.8919 18.4781 13.8902 18.7051C13.888 18.938 13.7242 19.0874 13.4776 19.0855C13.2316 19.0837 13.0744 18.9344 13.0727 18.6987C13.0711 18.4768 13.0727 18.2548 13.0727 18.0169C13.0179 18.0278 12.9741 18.0328 12.9341 18.0456C12.4267 18.2027 11.9182 18.1927 11.4092 18.0529C11.1413 17.9794 11.0437 17.8397 11.1029 17.6076C11.1369 17.4747 11.1873 17.345 11.235 17.1989C11.1182 17.1738 11.001 17.1505 10.8843 17.1235C10.3972 17.0112 9.95772 16.8212 9.57143 16.5495C9.30514 16.3622 9.30678 16.148 9.57527 15.9585C9.93909 15.7018 10.3533 15.5196 10.8322 15.3963L10.8311 15.3968ZM13.5505 13.3571C13.4678 13.4065 13.4524 13.411 13.448 13.4188C13.4278 13.4608 13.4091 13.5033 13.3916 13.5462C13.2289 13.9481 13.1461 14.36 13.1445 14.7848C13.1439 15.0287 12.9938 15.194 12.7544 15.1835C12.6251 15.1775 12.4809 15.1168 12.3785 15.0456C12.0667 14.8286 11.733 14.6555 11.3166 14.5628C11.418 14.8907 11.6103 15.1533 11.8437 15.3995C12.0366 15.6032 11.9686 15.8658 11.7034 15.9512C11.6223 15.9772 11.5308 15.985 11.4432 15.9932C11.1111 16.0243 10.732 16.1366 10.5418 16.2672C10.9665 16.4632 11.4196 16.5499 11.899 16.5399C12.1067 16.5353 12.2788 16.5709 12.3725 16.7427C12.4629 16.908 12.3796 17.0354 12.253 17.1615C12.1664 17.2473 12.1007 17.3478 12.0103 17.4615C12.4793 17.4976 12.8245 17.3839 13.099 17.1185C13.373 16.8536 13.5883 16.8568 13.871 17.124C13.9204 17.171 13.9724 17.2176 14.031 17.256C14.2919 17.4263 14.5828 17.5031 14.962 17.4515C14.8486 17.3222 14.7609 17.2163 14.665 17.1158C14.5532 16.9989 14.5132 16.8751 14.5943 16.7358C14.6743 16.5988 14.8086 16.5413 14.991 16.5399C15.1817 16.5381 15.3735 16.5326 15.562 16.5107C15.8683 16.475 16.1609 16.4001 16.4271 16.2284C16.1176 16.132 15.8074 16.0535 15.4913 15.9964C15.2973 15.9617 15.1165 15.9338 15.0327 15.758C14.9554 15.5954 15.0414 15.4753 15.1581 15.3543C15.3806 15.1241 15.5526 14.8716 15.6436 14.5624C15.5642 14.5829 15.5006 14.5884 15.4513 14.6135C15.145 14.7693 14.8354 14.9218 14.5395 15.0903C14.3856 15.178 14.2371 15.2232 14.0639 15.1597C13.8968 15.0985 13.8272 14.9775 13.8179 14.8309C13.8119 14.74 13.8267 14.6469 13.8086 14.5583C13.7297 14.1687 13.6426 13.7805 13.5505 13.3567V13.3571Z" fill="#4CAF50"/>
<path d="M10.6924 21.5994C10.694 21.0281 11.242 20.5778 11.9329 20.5801C12.6162 20.5824 13.1553 21.0418 13.1515 21.6186C13.1477 22.1795 12.5992 22.6302 11.9208 22.6298C11.2354 22.6298 10.6913 22.1735 10.6924 21.5994ZM12.3301 21.6072C12.3323 21.4314 12.1422 21.2688 11.9302 21.2642C11.7203 21.2597 11.522 21.4163 11.5137 21.5935C11.505 21.7748 11.705 21.9465 11.9241 21.9452C12.1362 21.9438 12.3285 21.7844 12.3307 21.6072H12.3301Z" fill="#4CAF50"/>
<path d="M21.8489 21.599C21.8505 21.0281 22.399 20.5778 23.0899 20.5801C23.7732 20.5824 24.3118 21.0418 24.308 21.6186C24.3042 22.179 23.7551 22.6298 23.0768 22.6298C22.3913 22.6298 21.8472 22.1731 21.8489 21.599ZM23.0872 21.2642C22.8773 21.2597 22.679 21.4159 22.6702 21.5931C22.6615 21.7675 22.8461 21.9342 23.0598 21.9447C23.2762 21.9552 23.4845 21.7913 23.4872 21.6077C23.4899 21.4323 23.2998 21.2688 23.0878 21.2642H23.0872Z" fill="#4CAF50"/>
</g>
<defs>
<clipPath id="clip0_1647_759">
<rect width="21" height="13" fill="white" transform="translate(7 11)"/>
</clipPath>
</defs>
</svg>
