<svg width="36" height="36" viewBox="0 0 36 36" fill="none" xmlns="http://www.w3.org/2000/svg">
<rect width="36" height="36" rx="5" fill="#FFDDE3"/>
<path d="M20.8 10.6129L27.501 21.7739C28.464 23.3769 27.991 25.4859 26.444 26.4839C25.9248 26.8201 25.3196 26.9992 24.701 26.9999H11.298C9.477 26.9999 8 25.4699 8 23.5809C8 22.9419 8.173 22.3169 8.498 21.7739L15.2 10.6129C16.162 9.00986 18.196 8.51886 19.743 9.51686C20.171 9.79286 20.533 10.1679 20.8 10.6129ZM18 22.9999C18.2652 22.9999 18.5196 22.8945 18.7071 22.707C18.8946 22.5194 19 22.2651 19 21.9999C19 21.7346 18.8946 21.4803 18.7071 21.2928C18.5196 21.1052 18.2652 20.9999 18 20.9999C17.7348 20.9999 17.4804 21.1052 17.2929 21.2928C17.1054 21.4803 17 21.7346 17 21.9999C17 22.2651 17.1054 22.5194 17.2929 22.707C17.4804 22.8945 17.7348 22.9999 18 22.9999ZM18 13.9999C17.7348 13.9999 17.4804 14.1052 17.2929 14.2928C17.1054 14.4803 17 14.7346 17 14.9999V18.9999C17 19.2651 17.1054 19.5194 17.2929 19.707C17.4804 19.8945 17.7348 19.9999 18 19.9999C18.2652 19.9999 18.5196 19.8945 18.7071 19.707C18.8946 19.5194 19 19.2651 19 18.9999V14.9999C19 14.7346 18.8946 14.4803 18.7071 14.2928C18.5196 14.1052 18.2652 13.9999 18 13.9999Z" fill="#FF4968"/>
</svg>
