<svg width="393" height="852" viewBox="0 0 393 852" fill="none" xmlns="http://www.w3.org/2000/svg">
<rect width="393" height="852" fill="white"/>
<g clip-path="url(#clip0_526_9169)">
<path d="M197.003 364C201.704 370.064 203.991 376.996 204.559 384.268C205.114 391.414 204.675 398.636 204.675 405.556C212.929 396.359 224.477 391.188 237.936 387.653C231.594 400.07 222.449 408.814 210.204 415.721C217.088 417.596 223.108 419.244 229.979 421.119C215.112 425.61 199.573 420.465 192.365 409.708C182.717 395.315 188.671 373.285 197.003 363.987V364Z" fill="#4CAF50"/>
<path d="M154.015 393.679C159.298 405.568 169.567 411.129 180.392 416.275C175.199 418.728 170.42 420.981 165.641 423.245L163.354 424.403L166.118 424.591C173.391 425.208 180.224 423.459 187.044 421.056C188.955 420.377 191.655 420.666 193.58 421.446C198.049 423.258 202.286 425.648 206.613 427.812C189.601 415.948 177.769 396.497 154.015 393.679Z" fill="black"/>
</g>
<path d="M189.794 422.153C187.19 424.608 179.5 426.506 175.98 427.147C184.319 427.587 191.002 425.733 193.3 424.751L189.794 422.153Z" fill="#4CAF50"/>
<path d="M138.527 445.19H136.138C136.07 444.801 135.945 444.457 135.762 444.157C135.579 443.853 135.351 443.595 135.078 443.384C134.806 443.173 134.495 443.014 134.146 442.909C133.801 442.799 133.429 442.744 133.028 442.744C132.317 442.744 131.687 442.921 131.138 443.276C130.589 443.627 130.159 444.142 129.848 444.822C129.537 445.498 129.382 446.324 129.382 447.299C129.382 448.292 129.537 449.128 129.848 449.808C130.163 450.484 130.593 450.995 131.138 451.341C131.687 451.683 132.315 451.854 133.022 451.854C133.414 451.854 133.78 451.804 134.12 451.702C134.465 451.597 134.774 451.443 135.046 451.24C135.323 451.037 135.555 450.788 135.742 450.492C135.934 450.197 136.066 449.859 136.138 449.479L138.527 449.491C138.437 450.108 138.244 450.687 137.946 451.227C137.652 451.768 137.267 452.245 136.79 452.659C136.313 453.069 135.755 453.39 135.117 453.622C134.478 453.85 133.769 453.964 132.99 453.964C131.841 453.964 130.815 453.7 129.912 453.172C129.009 452.644 128.298 451.882 127.779 450.885C127.26 449.888 127 448.693 127 447.299C127 445.901 127.262 444.706 127.785 443.713C128.309 442.717 129.022 441.954 129.925 441.426C130.827 440.898 131.849 440.634 132.99 440.634C133.718 440.634 134.395 440.736 135.021 440.938C135.647 441.141 136.204 441.439 136.694 441.832C137.184 442.22 137.586 442.698 137.901 443.264C138.22 443.825 138.429 444.467 138.527 445.19Z" fill="black"/>
<path d="M148.712 453.787H146.183L150.787 440.812H153.712L158.323 453.787H155.794L152.301 443.473H152.199L148.712 453.787ZM148.795 448.699H155.692V450.587H148.795V448.699Z" fill="black"/>
<path d="M177.287 440.812V453.787H175.179L169.017 444.949H168.908V453.787H166.539V440.812H168.659L174.815 449.656H174.93V440.812H177.287Z" fill="black"/>
<path d="M197.11 440.812V453.787H195.003L188.84 444.949H188.731V453.787H186.362V440.812H188.482L194.639 449.656H194.753V440.812H197.11Z" fill="black"/>
<path d="M207.865 453.787H205.336L209.94 440.812H212.865L217.476 453.787H214.947L211.454 443.473H211.352L207.865 453.787ZM207.948 448.699H214.845V450.587H207.948V448.699Z" fill="black"/>
<path d="M225.692 453.787V440.812H230.699C231.644 440.812 232.43 440.96 233.055 441.255C233.685 441.547 234.156 441.946 234.467 442.453C234.782 442.959 234.939 443.534 234.939 444.176C234.939 444.704 234.837 445.156 234.633 445.532C234.428 445.903 234.154 446.205 233.809 446.438C233.464 446.67 233.079 446.837 232.653 446.938V447.065C233.117 447.09 233.562 447.232 233.988 447.489C234.418 447.743 234.769 448.102 235.041 448.566C235.314 449.031 235.45 449.593 235.45 450.252C235.45 450.923 235.286 451.527 234.958 452.064C234.631 452.596 234.137 453.016 233.477 453.324C232.817 453.633 231.987 453.787 230.986 453.787H225.692ZM228.062 451.823H230.61C231.47 451.823 232.089 451.66 232.468 451.335C232.851 451.006 233.043 450.583 233.043 450.068C233.043 449.684 232.947 449.337 232.755 449.029C232.564 448.716 232.291 448.471 231.938 448.294C231.584 448.112 231.163 448.021 230.673 448.021H228.062V451.823ZM228.062 446.33H230.405C230.814 446.33 231.182 446.256 231.51 446.108C231.838 445.956 232.095 445.743 232.283 445.468C232.474 445.19 232.57 444.86 232.57 444.48C232.57 443.977 232.391 443.563 232.034 443.238C231.68 442.913 231.154 442.75 230.456 442.75H228.062V446.33Z" fill="black"/>
<path d="M246.374 440.812V453.787H244.005V440.812H246.374Z" fill="black"/>
<path d="M262.541 444.379C262.482 443.825 262.231 443.394 261.788 443.086C261.349 442.778 260.779 442.624 260.076 442.624C259.583 442.624 259.159 442.698 258.806 442.845C258.452 442.993 258.182 443.194 257.995 443.447C257.807 443.701 257.711 443.99 257.707 444.315C257.707 444.586 257.769 444.82 257.892 445.018C258.02 445.217 258.193 445.386 258.41 445.525C258.627 445.66 258.867 445.774 259.131 445.867C259.395 445.96 259.661 446.038 259.93 446.102L261.156 446.406C261.649 446.52 262.124 446.674 262.58 446.868C263.04 447.063 263.45 447.308 263.812 447.603C264.178 447.899 264.468 448.256 264.681 448.674C264.894 449.092 265 449.582 265 450.144C265 450.904 264.804 451.574 264.412 452.152C264.021 452.727 263.455 453.177 262.714 453.502C261.977 453.823 261.085 453.983 260.038 453.983C259.021 453.983 258.137 453.827 257.388 453.514C256.643 453.202 256.06 452.746 255.638 452.146C255.221 451.546 254.995 450.815 254.961 449.954H257.292C257.326 450.406 257.467 450.782 257.714 451.082C257.96 451.381 258.282 451.605 258.678 451.753C259.078 451.901 259.525 451.975 260.019 451.975C260.534 451.975 260.985 451.899 261.373 451.747C261.764 451.591 262.071 451.375 262.292 451.101C262.514 450.822 262.627 450.497 262.631 450.125C262.627 449.787 262.526 449.508 262.331 449.289C262.135 449.065 261.86 448.879 261.507 448.731C261.158 448.579 260.749 448.444 260.281 448.326L258.793 447.945C257.716 447.671 256.864 447.255 256.238 446.697C255.617 446.136 255.306 445.39 255.306 444.461C255.306 443.696 255.515 443.027 255.932 442.453C256.353 441.878 256.926 441.433 257.65 441.116C258.373 440.795 259.193 440.634 260.108 440.634C261.036 440.634 261.85 440.795 262.548 441.116C263.25 441.433 263.802 441.874 264.202 442.44C264.602 443.002 264.808 443.648 264.821 444.379H262.541Z" fill="black"/>
<path d="M156.746 461.22H155.866C155.814 460.969 155.723 460.748 155.593 460.558C155.465 460.368 155.309 460.208 155.124 460.079C154.942 459.948 154.74 459.849 154.518 459.784C154.295 459.718 154.064 459.685 153.822 459.685C153.383 459.685 152.984 459.796 152.627 460.016C152.272 460.237 151.989 460.562 151.779 460.991C151.571 461.42 151.467 461.947 151.467 462.571C151.467 463.196 151.571 463.722 151.779 464.152C151.989 464.581 152.272 464.906 152.627 465.127C152.984 465.347 153.383 465.458 153.822 465.458C154.064 465.458 154.295 465.425 154.518 465.359C154.74 465.293 154.942 465.196 155.124 465.067C155.309 464.936 155.465 464.775 155.593 464.585C155.723 464.392 155.814 464.172 155.866 463.923H156.746C156.68 464.291 156.559 464.621 156.384 464.912C156.209 465.203 155.991 465.451 155.731 465.655C155.471 465.856 155.179 466.01 154.855 466.116C154.533 466.221 154.189 466.274 153.822 466.274C153.203 466.274 152.652 466.124 152.169 465.824C151.687 465.523 151.307 465.096 151.03 464.542C150.754 463.989 150.615 463.332 150.615 462.571C150.615 461.811 150.754 461.154 151.03 460.6C151.307 460.047 151.687 459.62 152.169 459.319C152.652 459.019 153.203 458.869 153.822 458.869C154.189 458.869 154.533 458.921 154.855 459.027C155.179 459.133 155.471 459.288 155.731 459.492C155.991 459.693 156.209 459.94 156.384 460.231C156.559 460.519 156.68 460.849 156.746 461.22Z" fill="black"/>
<path d="M167.795 462.571C167.795 463.332 167.656 463.989 167.38 464.542C167.103 465.096 166.723 465.523 166.241 465.824C165.758 466.124 165.207 466.274 164.588 466.274C163.968 466.274 163.417 466.124 162.934 465.824C162.452 465.523 162.072 465.096 161.796 464.542C161.519 463.989 161.38 463.332 161.38 462.571C161.38 461.811 161.519 461.154 161.796 460.6C162.072 460.047 162.452 459.62 162.934 459.319C163.417 459.019 163.968 458.869 164.588 458.869C165.207 458.869 165.758 459.019 166.241 459.319C166.723 459.62 167.103 460.047 167.38 460.6C167.656 461.154 167.795 461.811 167.795 462.571ZM166.943 462.571C166.943 461.947 166.838 461.42 166.628 460.991C166.419 460.562 166.137 460.237 165.78 460.016C165.425 459.796 165.028 459.685 164.588 459.685C164.148 459.685 163.749 459.796 163.392 460.016C163.037 460.237 162.755 460.562 162.544 460.991C162.336 461.42 162.232 461.947 162.232 462.571C162.232 463.196 162.336 463.722 162.544 464.152C162.755 464.581 163.037 464.906 163.392 465.127C163.749 465.347 164.148 465.458 164.588 465.458C165.028 465.458 165.425 465.347 165.78 465.127C166.137 464.906 166.419 464.581 166.628 464.152C166.838 463.722 166.943 463.196 166.943 462.571Z" fill="black"/>
<path d="M178.533 458.967V466.176H177.681L173.722 460.516H173.651V466.176H172.771V458.967H173.622L177.596 464.641H177.667V458.967H178.533Z" fill="black"/>
<path d="M189.551 458.967V466.176H188.7L184.741 460.516H184.67V466.176H183.79V458.967H184.641L188.615 464.641H188.686V458.967H189.551Z" fill="black"/>
<path d="M194.809 466.176V458.967H199.194V459.742H195.689V462.177H198.967V462.952H195.689V465.401H199.251V466.176H194.809Z" fill="black"/>
<path d="M210.123 461.22H209.243C209.191 460.969 209.1 460.748 208.97 460.558C208.842 460.368 208.686 460.208 208.502 460.079C208.32 459.948 208.117 459.849 207.895 459.784C207.673 459.718 207.441 459.685 207.2 459.685C206.76 459.685 206.361 459.796 206.004 460.016C205.649 460.237 205.367 460.562 205.156 460.991C204.948 461.42 204.844 461.947 204.844 462.571C204.844 463.196 204.948 463.722 205.156 464.152C205.367 464.581 205.649 464.906 206.004 465.127C206.361 465.347 206.76 465.458 207.2 465.458C207.441 465.458 207.673 465.425 207.895 465.359C208.117 465.293 208.32 465.196 208.502 465.067C208.686 464.936 208.842 464.775 208.97 464.585C209.1 464.392 209.191 464.172 209.243 463.923H210.123C210.057 464.291 209.936 464.621 209.761 464.912C209.586 465.203 209.369 465.451 209.108 465.655C208.848 465.856 208.556 466.01 208.232 466.116C207.91 466.221 207.566 466.274 207.2 466.274C206.58 466.274 206.029 466.124 205.546 465.824C205.064 465.523 204.684 465.096 204.408 464.542C204.131 463.989 203.993 463.332 203.993 462.571C203.993 461.811 204.131 461.154 204.408 460.6C204.684 460.047 205.064 459.62 205.546 459.319C206.029 459.019 206.58 458.869 207.2 458.869C207.566 458.869 207.91 458.921 208.232 459.027C208.556 459.133 208.848 459.288 209.108 459.492C209.369 459.693 209.586 459.94 209.761 460.231C209.936 460.519 210.057 460.849 210.123 461.22Z" fill="black"/>
<path d="M214.644 459.742V458.967H220.094V459.742H217.809V466.176H216.929V459.742H214.644Z" fill="black"/>
<path d="M230.776 462.571C230.776 463.332 230.638 463.989 230.361 464.542C230.085 465.096 229.705 465.523 229.222 465.824C228.74 466.124 228.189 466.274 227.569 466.274C226.95 466.274 226.398 466.124 225.916 465.824C225.433 465.523 225.054 465.096 224.777 464.542C224.5 463.989 224.362 463.332 224.362 462.571C224.362 461.811 224.5 461.154 224.777 460.6C225.054 460.047 225.433 459.62 225.916 459.319C226.398 459.019 226.95 458.869 227.569 458.869C228.189 458.869 228.74 459.019 229.222 459.319C229.705 459.62 230.085 460.047 230.361 460.6C230.638 461.154 230.776 461.811 230.776 462.571ZM229.925 462.571C229.925 461.947 229.82 461.42 229.609 460.991C229.401 460.562 229.118 460.237 228.761 460.016C228.406 459.796 228.009 459.685 227.569 459.685C227.129 459.685 226.731 459.796 226.374 460.016C226.019 460.237 225.736 460.562 225.526 460.991C225.318 461.42 225.213 461.947 225.213 462.571C225.213 463.196 225.318 463.722 225.526 464.152C225.736 464.581 226.019 464.906 226.374 465.127C226.731 465.347 227.129 465.458 227.569 465.458C228.009 465.458 228.406 465.347 228.761 465.127C229.118 464.906 229.401 464.581 229.609 464.152C229.82 463.722 229.925 463.196 229.925 462.571Z" fill="black"/>
<path d="M235.753 466.176V458.967H238.208C238.775 458.967 239.241 459.063 239.605 459.256C239.97 459.446 240.239 459.708 240.414 460.041C240.589 460.374 240.677 460.753 240.677 461.178C240.677 461.602 240.589 461.979 240.414 462.307C240.239 462.636 239.971 462.894 239.609 463.082C239.247 463.267 238.785 463.36 238.222 463.36H236.235V462.571H238.193C238.581 462.571 238.893 462.515 239.13 462.402C239.369 462.29 239.542 462.13 239.648 461.924C239.757 461.715 239.811 461.466 239.811 461.178C239.811 460.889 239.757 460.637 239.648 460.421C239.539 460.205 239.365 460.038 239.126 459.921C238.888 459.801 238.572 459.742 238.179 459.742H236.632V466.176H235.753ZM239.173 462.937L240.961 466.176H239.939L238.179 462.937H239.173Z" fill="black"/>
<defs>
<clipPath id="clip0_526_9169">
<rect width="83.9208" height="63.8121" fill="white" transform="translate(154.015 364)"/>
</clipPath>
</defs>
</svg>
